<svg xmlns="http://www.w3.org/2000/svg" xmlns:xlink="http://www.w3.org/1999/xlink" width="430" height="100" viewBox="0 0 430 100">
  <defs>
    <clipPath id="clip-Custom_Size_1">
      <rect width="430" height="100"/>
    </clipPath>
  </defs>
  <g id="Custom_Size_1" data-name="Custom Size – 1" clip-path="url(#clip-Custom_Size_1)">
    <image id="_3T-Impex-logo-with-red-compressor_1_" data-name="3T-Impex-logo-with-red-compressor (1)" width="100" height="100" xlink:href="../3T-Impex-logo-with-red-compressor%20(1).png"/>
    <g id="Group_1" data-name="Group 1">
      <path id="Path_1" data-name="Path 1" d="M29.036-24.684a11.568,11.568,0,0,1,6.29,4.216A12.062,12.062,0,0,1,37.6-13.056,11.857,11.857,0,0,1,35.36-5.848,14.3,14.3,0,0,1,29-1.122,25.527,25.527,0,0,1,19.38.544a30.2,30.2,0,0,1-8.5-1.19A21.866,21.866,0,0,1,3.808-4.08,5.36,5.36,0,0,1,2.176-5.95,5.348,5.348,0,0,1,1.7-8.3a5.577,5.577,0,0,1,1.156-3.57,3.514,3.514,0,0,1,2.856-1.462,4.457,4.457,0,0,1,1.7.306q.748.306,2.04.986.272.136.646.306t.85.374a30.4,30.4,0,0,0,3.91,1.666,12.329,12.329,0,0,0,3.91.578q3.808,0,5.474-1.224a4.727,4.727,0,0,0,1.666-4.08,4.269,4.269,0,0,0-1.7-3.808q-1.7-1.156-5.576-1.156H14.416a3.886,3.886,0,0,1-3.2-1.428,5.236,5.236,0,0,1-1.156-3.4,5.236,5.236,0,0,1,1.156-3.4,3.886,3.886,0,0,1,3.2-1.428h2.992a10.411,10.411,0,0,0,5.44-1.088,3.813,3.813,0,0,0,1.7-3.468,5.081,5.081,0,0,0-1.5-3.91A5.849,5.849,0,0,0,18.9-38.9a10.272,10.272,0,0,0-3.57.612,36.7,36.7,0,0,0-3.706,1.632l-1.428.68q-1.292.68-2.04.986a4.457,4.457,0,0,1-1.7.306A3.514,3.514,0,0,1,3.6-36.142a5.577,5.577,0,0,1-1.156-3.57,5.3,5.3,0,0,1,.476-2.38,5.486,5.486,0,0,1,1.632-1.836,22.567,22.567,0,0,1,6.9-3.4,27.257,27.257,0,0,1,8.058-1.224A22.538,22.538,0,0,1,28.39-46.92,13.3,13.3,0,0,1,34.306-42.3,11.873,11.873,0,0,1,36.38-35.36,11.307,11.307,0,0,1,34.442-28.8,11.025,11.025,0,0,1,29.036-24.684ZM62.288.34A6.347,6.347,0,0,1,57.7-1.326,5.89,5.89,0,0,1,55.964-5.78V-37.808H46.376a6.7,6.7,0,0,1-4.454-1.258,4.8,4.8,0,0,1-1.462-3.842,4.689,4.689,0,0,1,1.462-3.808,6.828,6.828,0,0,1,4.454-1.224H78.2a6.828,6.828,0,0,1,4.454,1.224,4.689,4.689,0,0,1,1.462,3.808,4.8,4.8,0,0,1-1.462,3.842A6.7,6.7,0,0,1,78.2-37.808H68.612V-5.78a5.89,5.89,0,0,1-1.734,4.454A6.347,6.347,0,0,1,62.288.34Zm51.476.068a6.11,6.11,0,0,1-4.522-1.666,6.11,6.11,0,0,1-1.666-4.522V-42.16a6.019,6.019,0,0,1,1.666-4.454,6.11,6.11,0,0,1,4.522-1.666,6.321,6.321,0,0,1,4.624,1.666,5.953,5.953,0,0,1,1.7,4.454V-5.78a6.042,6.042,0,0,1-1.7,4.522A6.321,6.321,0,0,1,113.764.408Zm57.6-48.688a5.584,5.584,0,0,1,4.216,1.7,6.117,6.117,0,0,1,1.632,4.42V-5.168a5.513,5.513,0,0,1-1.5,4.08,5.332,5.332,0,0,1-3.944,1.5,5.36,5.36,0,0,1-3.91-1.5,5.444,5.444,0,0,1-1.53-4.08V-25.16l-7.752,14.28a8.771,8.771,0,0,1-2.448,3.094,5.145,5.145,0,0,1-3.06.918,5.145,5.145,0,0,1-3.06-.918,8.771,8.771,0,0,1-2.448-3.094l-7.684-13.872V-5.168a5.469,5.469,0,0,1-1.53,4.046,5.381,5.381,0,0,1-3.978,1.53,5.36,5.36,0,0,1-3.91-1.5,5.444,5.444,0,0,1-1.53-4.08V-42.16a6.046,6.046,0,0,1,1.666-4.42,5.7,5.7,0,0,1,4.25-1.7,5.652,5.652,0,0,1,3.332,1.054,8.225,8.225,0,0,1,2.516,3.026L153.2-20.672,165.648-44.2Q167.756-48.28,171.36-48.28ZM192.236.408a6.11,6.11,0,0,1-4.522-1.666,6.11,6.11,0,0,1-1.666-4.522V-42.16a5.8,5.8,0,0,1,1.5-4.284,5.8,5.8,0,0,1,4.284-1.5h17.408q7.956,0,12.376,4.046t4.42,11.254q0,7.14-4.454,11.22t-12.342,4.08H198.56V-5.78a6.042,6.042,0,0,1-1.7,4.522A6.321,6.321,0,0,1,192.236.408Zm15.3-27.132a7.756,7.756,0,0,0,5.134-1.428,5.509,5.509,0,0,0,1.666-4.42q0-5.916-6.8-5.916H198.56v11.764ZM237.864,0a5.8,5.8,0,0,1-4.284-1.5,5.8,5.8,0,0,1-1.5-4.284V-42.16a5.8,5.8,0,0,1,1.5-4.284,5.8,5.8,0,0,1,4.284-1.5h23.528a6.851,6.851,0,0,1,4.42,1.224,4.305,4.305,0,0,1,1.5,3.536q0,4.9-5.916,4.9H244.256v9.112h15.776q5.916,0,5.916,4.828a4.305,4.305,0,0,1-1.5,3.536,6.851,6.851,0,0,1-4.42,1.224H244.256v9.928h17.136q5.916,0,5.916,4.9a4.305,4.305,0,0,1-1.5,3.536A6.851,6.851,0,0,1,261.392,0Zm73.78-9.044a5.539,5.539,0,0,1,1.5,3.74,5.446,5.446,0,0,1-1.8,4.046A5.7,5.7,0,0,1,307.292.476a5.342,5.342,0,0,1-4.148-2.04l-11.7-14.008-11.9,14.008a5.28,5.28,0,0,1-4.08,2.04,5.643,5.643,0,0,1-4.046-1.768,5.555,5.555,0,0,1-1.8-4.08,5.6,5.6,0,0,1,1.428-3.672L284.1-24.14,271.388-38.9a5.635,5.635,0,0,1-1.5-3.672,5.446,5.446,0,0,1,1.8-4.046,5.771,5.771,0,0,1,4.114-1.734,5.342,5.342,0,0,1,4.148,2.04l11.492,13.6,11.424-13.6a4.961,4.961,0,0,1,4.012-2.04A5.771,5.771,0,0,1,311-46.614a5.446,5.446,0,0,1,1.8,4.046,5.6,5.6,0,0,1-1.428,3.672L298.656-24.14Z" transform="translate(113.3 59)" fill="#333c49"/>
      <path id="Path_2" data-name="Path 2" d="M7.248.12a1.218,1.218,0,0,1-.9-.348A1.218,1.218,0,0,1,6-1.128V-14.856H1.2q-1.152,0-1.152-1.032a.969.969,0,0,1,.3-.768A1.249,1.249,0,0,1,1.2-16.92H13.3a1.249,1.249,0,0,1,.852.264.969.969,0,0,1,.3.768q0,1.032-1.152,1.032H8.5V-1.128a1.242,1.242,0,0,1-.336.9A1.209,1.209,0,0,1,7.248.12Zm27.48-1.656a1.158,1.158,0,0,1,.216.672.932.932,0,0,1-.348.732,1.2,1.2,0,0,1-.8.3,1.25,1.25,0,0,1-1.08-.6L29.5-5.424A3.491,3.491,0,0,0,28.32-6.636a3.338,3.338,0,0,0-1.632-.348H23.976v5.856a1.259,1.259,0,0,1-.324.912,1.192,1.192,0,0,1-.9.336,1.2,1.2,0,0,1-.888-.336,1.232,1.232,0,0,1-.336-.912V-15.72a1.184,1.184,0,0,1,.324-.876,1.216,1.216,0,0,1,.9-.324h5.976a6.47,6.47,0,0,1,4.284,1.248,4.51,4.51,0,0,1,1.476,3.648A4.6,4.6,0,0,1,33.36-8.8a5.341,5.341,0,0,1-3.216,1.572,2.856,2.856,0,0,1,1.128.6,5.2,5.2,0,0,1,.984,1.2ZM28.44-8.976a4.349,4.349,0,0,0,2.772-.732,2.752,2.752,0,0,0,.9-2.268,2.7,2.7,0,0,0-.888-2.244,4.45,4.45,0,0,0-2.784-.708H23.952v5.952ZM57.888-1.44a1.306,1.306,0,0,1,.12.48.965.965,0,0,1-.372.768,1.257,1.257,0,0,1-.828.312,1.058,1.058,0,0,1-.588-.18,1.126,1.126,0,0,1-.42-.516l-1.584-3.6H45.432l-1.584,3.6a1.1,1.1,0,0,1-.432.516,1.116,1.116,0,0,1-.6.18,1.288,1.288,0,0,1-.852-.312.965.965,0,0,1-.372-.768,1.306,1.306,0,0,1,.12-.48L48.48-16.248a1.267,1.267,0,0,1,.54-.6,1.531,1.531,0,0,1,.78-.216,1.531,1.531,0,0,1,.78.216,1.267,1.267,0,0,1,.54.6ZM46.32-6.144h7.032l-3.528-7.944ZM66.84,0a1.216,1.216,0,0,1-.9-.324,1.184,1.184,0,0,1-.324-.876V-15.72a1.184,1.184,0,0,1,.324-.876,1.216,1.216,0,0,1,.9-.324h4.7a8.71,8.71,0,0,1,6.36,2.208,8.334,8.334,0,0,1,2.256,6.24A8.375,8.375,0,0,1,77.9-2.22,8.682,8.682,0,0,1,71.544,0ZM71.4-2.064q6.24,0,6.24-6.408,0-6.384-6.24-6.384H68.088V-2.064ZM89.784,0a1.216,1.216,0,0,1-.9-.324A1.184,1.184,0,0,1,88.56-1.2V-15.72a1.184,1.184,0,0,1,.324-.876,1.216,1.216,0,0,1,.9-.324h8.832a1.249,1.249,0,0,1,.852.264.939.939,0,0,1,.3.744.9.9,0,0,1-.3.732,1.289,1.289,0,0,1-.852.252H90.984V-9.6h7.152a1.249,1.249,0,0,1,.852.264.939.939,0,0,1,.3.744.939.939,0,0,1-.3.744,1.249,1.249,0,0,1-.852.264H90.984v5.592h7.632q1.152,0,1.152.984a.939.939,0,0,1-.3.744A1.249,1.249,0,0,1,98.616,0Zm36.6.192A8.27,8.27,0,0,1,122.16-.852a6.878,6.878,0,0,1-2.76-3,10.378,10.378,0,0,1-.96-4.62,10.32,10.32,0,0,1,.96-4.6,6.878,6.878,0,0,1,2.76-3,8.27,8.27,0,0,1,4.224-1.044,9.075,9.075,0,0,1,3,.492,7.287,7.287,0,0,1,2.472,1.428,1.161,1.161,0,0,1,.456.96,1.135,1.135,0,0,1-.24.732.717.717,0,0,1-.576.3,1.245,1.245,0,0,1-.792-.312,8.5,8.5,0,0,0-2.1-1.212,6.2,6.2,0,0,0-2.148-.348,4.976,4.976,0,0,0-4.056,1.7,7.473,7.473,0,0,0-1.416,4.9,7.515,7.515,0,0,0,1.416,4.92,4.976,4.976,0,0,0,4.056,1.7,5.873,5.873,0,0,0,2.1-.36,10.172,10.172,0,0,0,2.148-1.2,1.574,1.574,0,0,1,.792-.312.717.717,0,0,1,.576.3,1.135,1.135,0,0,1,.24.732,1.161,1.161,0,0,1-.456.96A7.287,7.287,0,0,1,129.384-.3,9.075,9.075,0,0,1,126.384.192Zm20.9,0a7.954,7.954,0,0,1-4.164-1.056,7.034,7.034,0,0,1-2.724-3,10.242,10.242,0,0,1-.96-4.584,10.49,10.49,0,0,1,.948-4.62,6.848,6.848,0,0,1,2.724-3,8.091,8.091,0,0,1,4.176-1.044,8.139,8.139,0,0,1,4.2,1.044,6.848,6.848,0,0,1,2.724,3,10.43,10.43,0,0,1,.948,4.6,10.43,10.43,0,0,1-.948,4.6,6.922,6.922,0,0,1-2.724,3.012A8.067,8.067,0,0,1,147.288.192Zm0-2.016a4.835,4.835,0,0,0,3.96-1.728,7.574,7.574,0,0,0,1.416-4.92,7.569,7.569,0,0,0-1.4-4.908,4.842,4.842,0,0,0-3.972-1.716,4.788,4.788,0,0,0-3.924,1.716,7.569,7.569,0,0,0-1.4,4.908,7.62,7.62,0,0,0,1.4,4.92A4.773,4.773,0,0,0,147.288-1.824ZM176.28-17.04a1.11,1.11,0,0,1,.852.348,1.268,1.268,0,0,1,.324.9V-1.128a1.242,1.242,0,0,1-.336.9,1.148,1.148,0,0,1-.864.348,1.1,1.1,0,0,1-.96-.48l-9.408-12.408v11.64a1.268,1.268,0,0,1-.324.9,1.11,1.11,0,0,1-.852.348,1.091,1.091,0,0,1-.84-.336,1.287,1.287,0,0,1-.312-.912V-15.792a1.242,1.242,0,0,1,.336-.9,1.148,1.148,0,0,1,.864-.348,1.1,1.1,0,0,1,.96.48l9.408,12.432V-15.792a1.3,1.3,0,0,1,.312-.9A1.072,1.072,0,0,1,176.28-17.04ZM192.024.192a11.767,11.767,0,0,1-3.468-.5A6.872,6.872,0,0,1,185.928-1.7a1.229,1.229,0,0,1-.456-.984,1.135,1.135,0,0,1,.24-.732.717.717,0,0,1,.576-.3,1.59,1.59,0,0,1,.816.312,7.967,7.967,0,0,0,4.872,1.584,5.124,5.124,0,0,0,2.952-.72,2.364,2.364,0,0,0,1.032-2.064A1.7,1.7,0,0,0,195-6.192,12.606,12.606,0,0,0,191.928-7.2a18.52,18.52,0,0,1-3.312-.984,4.939,4.939,0,0,1-2.028-1.5,3.831,3.831,0,0,1-.732-2.412,4.406,4.406,0,0,1,.8-2.6,5.277,5.277,0,0,1,2.244-1.776,8.063,8.063,0,0,1,3.288-.636,9.889,9.889,0,0,1,3.144.48,6.617,6.617,0,0,1,2.448,1.416,1.249,1.249,0,0,1,.48.984,1.113,1.113,0,0,1-.252.72.741.741,0,0,1-.588.312,1.574,1.574,0,0,1-.792-.312,8.556,8.556,0,0,0-2.076-1.212,6.557,6.557,0,0,0-2.34-.372,4.8,4.8,0,0,0-2.88.756,2.457,2.457,0,0,0-1.032,2.1,1.937,1.937,0,0,0,.912,1.74,9.926,9.926,0,0,0,2.928,1.068,24.213,24.213,0,0,1,3.42,1,5.249,5.249,0,0,1,2.088,1.416,3.409,3.409,0,0,1,.78,2.316,4.261,4.261,0,0,1-.8,2.556A5.177,5.177,0,0,1,195.372-.42,8.56,8.56,0,0,1,192.024.192Zm21.264,0a6.961,6.961,0,0,1-5.136-1.752A7,7,0,0,1,206.4-6.72v-9.072a1.232,1.232,0,0,1,.336-.912,1.2,1.2,0,0,1,.888-.336,1.2,1.2,0,0,1,.888.336,1.232,1.232,0,0,1,.336.912v9.24a5.006,5.006,0,0,0,1.116,3.528,4.323,4.323,0,0,0,3.324,1.2,4.33,4.33,0,0,0,3.312-1.2,4.971,4.971,0,0,0,1.128-3.528v-9.24a1.242,1.242,0,0,1,.336-.9,1.178,1.178,0,0,1,.888-.348,1.2,1.2,0,0,1,.888.336,1.232,1.232,0,0,1,.336.912V-6.72a6.975,6.975,0,0,1-1.764,5.148A6.94,6.94,0,0,1,213.288.192ZM230.232,0a1.21,1.21,0,0,1-.876-.312,1.112,1.112,0,0,1-.324-.84v-14.64a1.242,1.242,0,0,1,.336-.9,1.178,1.178,0,0,1,.888-.348,1.232,1.232,0,0,1,.912.336,1.232,1.232,0,0,1,.336.912V-2.064h7.3a1.249,1.249,0,0,1,.852.264.969.969,0,0,1,.3.768.969.969,0,0,1-.3.768A1.249,1.249,0,0,1,238.8,0ZM249.48.12a1.218,1.218,0,0,1-.9-.348,1.218,1.218,0,0,1-.348-.9V-14.856h-4.8q-1.152,0-1.152-1.032a.969.969,0,0,1,.3-.768,1.249,1.249,0,0,1,.852-.264h12.1a1.249,1.249,0,0,1,.852.264.969.969,0,0,1,.3.768q0,1.032-1.152,1.032h-4.8V-1.128a1.242,1.242,0,0,1-.336.9A1.209,1.209,0,0,1,249.48.12Zm15.5,0a1.2,1.2,0,0,1-.888-.336,1.232,1.232,0,0,1-.336-.912V-15.792a1.242,1.242,0,0,1,.336-.9,1.178,1.178,0,0,1,.888-.348,1.232,1.232,0,0,1,.912.336,1.232,1.232,0,0,1,.336.912V-1.128a1.259,1.259,0,0,1-.324.912A1.224,1.224,0,0,1,264.984.12Zm22.944-17.16a1.11,1.11,0,0,1,.852.348,1.268,1.268,0,0,1,.324.9V-1.128a1.242,1.242,0,0,1-.336.9A1.148,1.148,0,0,1,287.9.12a1.1,1.1,0,0,1-.96-.48l-9.408-12.408v11.64a1.268,1.268,0,0,1-.324.9,1.11,1.11,0,0,1-.852.348,1.091,1.091,0,0,1-.84-.336,1.287,1.287,0,0,1-.312-.912V-15.792a1.242,1.242,0,0,1,.336-.9,1.148,1.148,0,0,1,.864-.348,1.1,1.1,0,0,1,.96.48l9.408,12.432V-15.792a1.3,1.3,0,0,1,.312-.9A1.072,1.072,0,0,1,287.928-17.04ZM310.8-8.976a1.015,1.015,0,0,1,.732.264.949.949,0,0,1,.276.72v5.616A2.285,2.285,0,0,1,311.58-1.2a1.6,1.6,0,0,1-.9.576,10.924,10.924,0,0,1-2.28.6,16.178,16.178,0,0,1-2.616.216,9.06,9.06,0,0,1-4.44-1.032,6.845,6.845,0,0,1-2.856-2.976,10.2,10.2,0,0,1-.984-4.656,10.089,10.089,0,0,1,.984-4.608,6.975,6.975,0,0,1,2.82-2.988,8.568,8.568,0,0,1,4.308-1.044,9.483,9.483,0,0,1,3.108.492,6.766,6.766,0,0,1,2.436,1.428,1.182,1.182,0,0,1,.48.96,1.135,1.135,0,0,1-.24.732.717.717,0,0,1-.576.3.967.967,0,0,1-.384-.072,3.221,3.221,0,0,1-.432-.24,8.785,8.785,0,0,0-2.136-1.212,6.461,6.461,0,0,0-2.208-.348,5.179,5.179,0,0,0-4.176,1.692,7.378,7.378,0,0,0-1.44,4.908,7.375,7.375,0,0,0,1.476,4.98A5.439,5.439,0,0,0,305.856-1.8a11.905,11.905,0,0,0,3.7-.576V-7.1h-3.144a1.079,1.079,0,0,1-.756-.252.88.88,0,0,1-.276-.684.88.88,0,0,1,.276-.684,1.079,1.079,0,0,1,.756-.252Z" transform="translate(114.952 90)" fill="#333c49"/>
    </g>
  </g>
</svg>
